<?xml version="1.0" encoding="utf-8"?>
<!-- Generator: Adobe Illustrator 22.0.1, SVG Export Plug-In . SVG Version: 6.00 Build 0)  -->
<svg version="1.1" id="Layer_1" xmlns="http://www.w3.org/2000/svg" xmlns:xlink="http://www.w3.org/1999/xlink" x="0px" y="0px"
	 viewBox="0 0 221 55" style="enable-background:new 0 0 221 55;" xml:space="preserve">
<style type="text/css">
	.st0{font-family:'ArialMT';}
	.st1{font-size:80px;}
	.st2{letter-spacing:-4;}
	.st3{letter-spacing:-2;}
	.st4{fill:#FFFFFF;}
</style>
<text transform="matrix(1 0 0 1 -2.0997 53.3805)" class="st0 st1 st2">co</text>
<text transform="matrix(1 0 0 1 84.4583 53.3805)" class="st0 st1 st2">u</text>
<text transform="matrix(1 0 0 1 129.3383 53.3805)" class="st0 st1 st2">n</text>
<text transform="matrix(1 0 0 1 174.0583 53.3805)" class="st0 st1 st3">t</text>
<text transform="matrix(1 0 0 1 202.2973 53.3805)" class="st0 st1 st3">.</text>
<g>
	<path class="st4" d="M32.7,17.7l-3.9,7.8l-0.7-0.4c0-0.2,0-0.3,0-0.4c0-0.5-0.5-1.1-1.4-1.8c-2.9-2-6.2-3-10.1-3
		c-1.7,0-3.2,0.2-4.5,0.6c-1,0.3-1.7,0.8-2.3,1.4c-0.6,0.6-0.9,1.3-0.9,2.1c0,1.2,0.7,2.1,2.2,2.5c0.8,0.2,2.4,0.5,5,0.7l3.8,0.4
		c2.3,0.2,4.1,0.6,5.5,1c1.4,0.4,2.6,1,3.7,1.8c1.1,0.8,2,1.8,2.6,3.1c0.6,1.3,1,2.7,1,4.1c0,2.3-0.7,4.4-2.2,6.2
		c-1.4,1.6-3.5,2.9-6.3,3.6c-2.1,0.6-4.4,0.9-6.8,0.9c-4.4,0-8.7-1-12.9-3.1c-0.9-0.4-1.4-0.6-1.6-0.6c-0.2,0-0.5,0.2-1,0.5L1,44.9
		l3.6-8.1l0.7,0.3c0,0.1,0,0.2,0,0.3c0,0.7,0.3,1.4,1,2c1,0.9,2.7,1.7,4.9,2.4c2.2,0.7,4.3,1,6.2,1c2.1,0,4-0.4,5.5-1.1
		c0.8-0.4,1.5-0.9,2-1.6c0.5-0.7,0.7-1.4,0.7-2.1c0-1.1-0.6-1.9-1.8-2.3c-0.8-0.3-2.5-0.6-5-0.9l-3.7-0.4c-2.5-0.3-4.3-0.5-5.3-0.7
		c-1-0.2-2.1-0.6-3.1-1.1c-1.5-0.7-2.6-1.8-3.5-3.3c-0.8-1.3-1.1-2.8-1.1-4.5c0-2.8,1-5.1,2.9-6.9c2.5-2.4,6.3-3.6,11.3-3.6
		c2.1,0,4.1,0.2,5.9,0.6c1.8,0.4,4.1,1.2,6.8,2.4c0.9,0.4,1.5,0.6,1.7,0.6c0.3,0,0.7-0.2,1.2-0.6L32.7,17.7z"/>
	<path class="st4" d="M46.6,30.5l-4.8,3.9v8.4c0,0.6,0.1,1.1,0.4,1.4c0.3,0.3,0.8,0.6,1.5,0.8v0.8h-12V45c0.7-0.2,1.2-0.4,1.5-0.8
		c0.3-0.3,0.4-0.8,0.4-1.4V15.1c0-0.6-0.1-1.1-0.4-1.4c-0.3-0.3-0.8-0.6-1.5-0.8v-0.8h12v0.8c-0.7,0.2-1.2,0.5-1.5,0.8
		c-0.3,0.3-0.4,0.8-0.4,1.4v11.1l12.7-10.1c0.9-0.7,1.4-1.4,1.4-2c0-0.6-0.6-1-1.7-1.2v-0.8h15.2v0.8c-0.8,0.1-1.4,0.3-1.9,0.7
		c-0.5,0.3-1.8,1.4-3.8,3.1l-11.4,9.1l12.5,14.4c1.6,1.9,2.8,3.1,3.5,3.6c0.7,0.6,1.5,0.9,2.4,1.1v0.8H55.9V45
		c1.1-0.3,1.7-0.7,1.7-1.2c0-0.2-0.1-0.4-0.2-0.6c-0.1-0.2-0.6-0.7-1.4-1.7L46.6,30.5z"/>
	<path class="st4" d="M86,29.8v12.7c0,0.7,0.2,1.2,0.5,1.5c0.3,0.4,0.8,0.7,1.6,0.9v0.9H75.2V45c0.8-0.2,1.3-0.5,1.6-0.9
		c0.3-0.4,0.5-0.9,0.5-1.6V29.8L66.5,15c-1.2-1.7-2.2-2.8-2.9-3.4c-0.7-0.6-1.6-1-2.6-1.3V9.4h16.5v0.9c-1.4,0.4-2.1,1-2.1,2
		c0,0.5,0.5,1.4,1.5,2.9l5.3,7.3l5.2-7.3c1-1.5,1.5-2.4,1.5-2.9c0-0.9-0.7-1.6-2.1-2l0-0.9h15.7v0.9c-1,0.2-1.9,0.6-2.6,1.3
		c-0.7,0.6-1.7,1.8-2.9,3.4L86,29.8z"/>
	<path class="st4" d="M86.3,46.1l3.3-8.9l0.8,0.3c0,0.2,0,0.4,0,0.5c0,0.7,0.4,1.4,1.3,2c0.9,0.6,2.2,1.1,3.7,1.5
		c1.6,0.4,3,0.6,4.5,0.6c2.3,0,4-0.5,5-1.6c0.5-0.5,0.9-1.2,1.1-1.9c0.2-0.7,0.3-1.8,0.3-3.3V15c0-0.5-0.1-0.9-0.4-1.2
		s-0.7-0.5-1.3-0.7v-0.8h11v0.8c-0.6,0.2-1,0.4-1.3,0.7S114,14.5,114,15v20.7c0,3.4-0.5,5.9-1.4,7.4c-1,1.6-2.5,2.8-4.4,3.7
		c-2,0.9-4.2,1.3-6.9,1.3c-1.5,0-2.8-0.1-3.9-0.3c-1.1-0.2-2.9-0.7-5.4-1.4c-1.5-0.4-2.6-0.7-3.3-0.7c-0.6,0-1.1,0.2-1.6,0.7
		L86.3,46.1z"/>
	<path class="st4" d="M134.3,12.1c5.2,0,9.6,1.3,13.1,4c4.2,3.2,6.3,7.7,6.3,13.4c0,5.4-2.1,9.7-6.3,12.9c-3.5,2.7-7.8,4-13,4
		c-5.2,0-9.6-1.3-13-4c-4.2-3.2-6.3-7.6-6.3-13.2c0-5.6,2.1-10,6.3-13.2C124.8,13.5,129.1,12.1,134.3,12.1z M134.3,18.3
		c-3.4,0-6.2,1.1-8.3,3.3c-2,2-3,4.6-3,7.7c0,3.1,1,5.6,3,7.6c2.1,2.2,4.9,3.3,8.3,3.3c3.4,0,6.2-1.1,8.3-3.3c2-2,3-4.5,3-7.5
		c0-3.2-1-5.8-3-7.8C140.5,19.4,137.7,18.3,134.3,18.3z"/>
	<path class="st4" d="M179.7,30.2c1.4,0.7,2.5,1.3,3.2,2c1.3,1.3,1.9,2.9,1.9,5.1c0,2.9-1.1,5-3.2,6.6c-1.9,1.4-4.5,2.1-7.9,2.1
		h-20.8v-0.7c0.6-0.2,1-0.4,1.3-0.7c0.3-0.3,0.4-0.7,0.4-1.3V19.3c0-0.5-0.1-0.9-0.4-1.2c-0.2-0.3-0.7-0.5-1.3-0.7v-0.7h20.4
		c3.6,0,6.2,0.6,7.9,1.9c1.8,1.4,2.7,3.2,2.7,5.6c0,1.4-0.3,2.5-0.9,3.4C182.3,28.5,181.3,29.4,179.7,30.2z M161.6,27.6h10.6
		c1.7,0,2.9-0.2,3.5-0.6c0.7-0.4,1-1.2,1-2.2c0-1-0.3-1.8-1-2.2c-0.7-0.4-1.9-0.6-3.6-0.6h-10.6V27.6z M161.6,40.6h10.9
		c3.5,0,5.3-1.3,5.3-3.8c0-2.6-1.8-3.8-5.3-3.8h-10.9V40.6z"/>
	<path class="st4" d="M208.9,22.7l-3.1,5.9l-0.5-0.3c0-0.5-0.2-0.9-0.5-1.2c-0.9-0.8-2.1-1.4-3.8-1.9c-1.7-0.5-3.4-0.8-5.1-0.8
		c-1.5,0-2.8,0.2-3.9,0.6c-1.6,0.6-2.5,1.4-2.5,2.6c0,0.7,0.4,1.3,1.2,1.6c0.8,0.3,2.3,0.6,4.6,0.7l3.6,0.3c3.1,0.2,5.5,0.8,7.2,1.8
		c0.9,0.5,1.7,1.3,2.3,2.2c0.7,1.1,1.1,2.4,1.1,3.8c0,2.6-1.2,4.6-3.5,6.1c-2.2,1.4-5.2,2.2-9,2.2c-3.8,0-7.5-0.8-11.1-2.4
		c-0.2-0.1-0.4-0.2-0.6-0.2c-0.3,0-0.6,0.2-0.8,0.5l-0.6-0.2l2.6-6.2l0.6,0.2c0,0.1,0,0.2,0,0.2c0,0.4,0.2,0.7,0.5,1
		c0.8,0.7,2.1,1.2,3.9,1.7c1.9,0.5,3.7,0.7,5.5,0.7c1.6,0,3-0.2,4.3-0.6c1.6-0.5,2.4-1.3,2.4-2.5c0-0.9-0.5-1.6-1.6-1.9
		c-0.7-0.2-2-0.4-3.9-0.6l-3.6-0.3c-1.9-0.2-3.4-0.3-4.4-0.6c-1-0.2-1.9-0.6-2.7-1.1c-1-0.6-1.7-1.4-2.3-2.5c-0.5-1-0.8-2.2-0.8-3.4
		c0-2.8,1.2-4.9,3.6-6.4c2.2-1.3,4.9-2,8.1-2c1.7,0,3.4,0.2,4.9,0.6c1.5,0.4,3.3,1.1,5.4,2c0.6,0.3,1.1,0.4,1.3,0.4
		c0.2,0,0.6-0.2,0.9-0.5L208.9,22.7z"/>
	<path class="st4" d="M215.8,34.6c1.5,0,2.7,0.5,3.7,1.5c1,1,1.5,2.2,1.5,3.7c0,1.4-0.5,2.6-1.5,3.6c-1,1-2.2,1.5-3.6,1.5
		c-1.4,0-2.6-0.5-3.7-1.5c-1-1-1.5-2.2-1.5-3.7c0-1.4,0.5-2.6,1.5-3.6C213.1,35.1,214.3,34.6,215.8,34.6z"/>
</g>
</svg>
